<?xml version="1.0" standalone="no"?><!DOCTYPE svg PUBLIC "-//W3C//DTD SVG 1.1//EN" "http://www.w3.org/Graphics/SVG/1.1/DTD/svg11.dtd"><svg t="1534239248009" class="icon" style="" viewBox="0 0 1024 1024" version="1.1" xmlns="http://www.w3.org/2000/svg" p-id="2214" xmlns:xlink="http://www.w3.org/1999/xlink" width="40" height="40"><defs><style type="text/css"></style></defs><path d="M793.6 575.146667c37.546667 0 68.266667-30.72 68.266667-68.266667s-30.72-68.266667-68.266667-68.266667-68.266667 30.72-68.266667 68.266667 30.72 68.266667 68.266667 68.266667z m-273.066667 0c37.546667 0 68.266667-30.72 68.266667-68.266667s-30.72-68.266667-68.266667-68.266667-68.266667 30.72-68.266666 68.266667 30.72 68.266667 68.266666 68.266667z m-273.066666 0c37.546667 0 68.266667-30.72 68.266666-68.266667s-30.72-68.266667-68.266666-68.266667-68.266667 30.72-68.266667 68.266667 30.72 68.266667 68.266667 68.266667zM512 63.146667c278.186667 0 503.466667 197.973333 503.466667 443.733333 0 116.053333-54.613333 232.106667-145.066667 315.733333V938.666667c0 13.653333-13.653333 23.893333-27.306667 20.48-1.706667 0-6.826667-1.706667-11.946666-3.413334-8.533333-1.706667-18.773333-5.12-29.013334-8.533333-30.72-8.533333-61.44-17.066667-90.453333-25.6-3.413333-1.706667-6.826667-1.706667-10.24-3.413333-59.733333 20.48-122.88 32.426667-187.733333 32.426666C235.52 950.613333 10.24 752.64 10.24 506.88 8.533333 261.12 235.52 63.146667 512 63.146667z" fill="#ffffff" p-id="2215"></path></svg>