<?xml version="1.0" standalone="no"?><!DOCTYPE svg PUBLIC "-//W3C//DTD SVG 1.1//EN" "http://www.w3.org/Graphics/SVG/1.1/DTD/svg11.dtd"><svg t="1526609899112" class="icon" style="" viewBox="0 0 1024 1024" version="1.1" xmlns="http://www.w3.org/2000/svg" p-id="5913" xmlns:xlink="http://www.w3.org/1999/xlink" width="20" height="20"><defs><style type="text/css"></style></defs><path d="M675.328 117.717333A425.429333 425.429333 0 0 0 512 85.333333C276.352 85.333333 85.333333 276.352 85.333333 512s191.018667 426.666667 426.666667 426.666667 426.666667-191.018667 426.666667-426.666667c0-56.746667-11.093333-112-32.384-163.328a21.333333 21.333333 0 0 0-39.402667 16.341333A382.762667 382.762667 0 0 1 896 512c0 212.074667-171.925333 384-384 384S128 724.074667 128 512 299.925333 128 512 128c51.114667 0 100.8 9.984 146.986667 29.12a21.333333 21.333333 0 0 0 16.341333-39.402667z m-324.693333 373.013334l174.464-174.485334a21.141333 21.141333 0 0 0-0.192-29.973333 21.141333 21.141333 0 0 0-29.973334-0.192l-208.256 208.256a20.821333 20.821333 0 0 0-6.122666 14.976c0.042667 5.418667 2.133333 10.837333 6.314666 14.997333l211.178667 211.2a21.141333 21.141333 0 0 0 29.973333 0.213334 21.141333 21.141333 0 0 0-0.213333-29.973334l-172.629333-172.629333 374.997333 2.602667a20.693333 20.693333 0 0 0 21.034667-21.034667 21.482667 21.482667 0 0 0-21.333334-21.333333l-379.242666-2.624z" fill="#ffffff" p-id="5914"></path></svg>