<?xml version="1.0" standalone="no"?><!DOCTYPE svg PUBLIC "-//W3C//DTD SVG 1.1//EN" "http://www.w3.org/Graphics/SVG/1.1/DTD/svg11.dtd"><svg t="1526614302825" class="icon" style="" viewBox="0 0 1024 1024" version="1.1" xmlns="http://www.w3.org/2000/svg" p-id="1846" xmlns:xlink="http://www.w3.org/1999/xlink" width="20" height="20"><defs><style type="text/css"></style></defs><path d="M195.699165 717.765923a17.34153 17.34153 0 0 0 21.624888-27.122153 474.568308 474.568308 0 0 1-39.972227-35.723551l-128.292638-128.292639 132.298532-132.298531c127.18278-127.165439 312.199563-170.571288 482.770851-113.309557a17.410896 17.410896 0 0 0 21.971719-10.925164 17.376213 17.376213 0 0 0-10.925164-21.971718c-183.161239-61.475724-381.791123-14.861691-518.338329 121.668174L0 526.62758l152.813562 152.813562a511.921963 511.921963 0 0 0 42.885603 38.324781zM871.186438 369.808125a509.372758 509.372758 0 0 0-76.198682-62.706972 17.34153 17.34153 0 0 0-19.335806 28.804281 474.152111 474.152111 0 0 1 70.996224 58.423615l128.292638 128.292638-132.298532 132.298532c-128.067198 128.067198-321.043743 171.368999-491.667056 110.222764a17.34153 17.34153 0 1 0-11.705533 32.654101 502.384122 502.384122 0 0 0 169.530797 29.35921c132.159799 0 262.273298-51.625735 358.362715-147.715152l156.819455-156.819455-152.79622-152.813562z" fill="#969797" p-id="1847"></path><path d="M529.592982 724.425071c-37.336314 0-73.718844-10.370235-105.263086-30.000847a17.34153 17.34153 0 1 0-18.312656 29.445918 233.469017 233.469017 0 0 0 123.575742 35.237989c129.090349 0 234.110654-105.020305 234.110654-234.110654a233.070162 233.070162 0 0 0-39.451981-130.096158 17.34153 17.34153 0 0 0-28.821622 19.283782 198.508493 198.508493 0 0 1 33.590543 110.812376c0 109.979983-89.464953 199.427594-199.427594 199.427594zM529.592982 325.569883c35.810259 0 70.909516 9.589866 101.534658 27.746448a17.34153 17.34153 0 0 0 17.671019-29.844773 233.937239 233.937239 0 0 0-119.223018-32.584735c-129.090349 0-234.110654 105.020305-234.110654 234.110654 0 36.139748 8.011787 70.805467 23.827262 103.026029a17.34153 17.34153 0 0 0 31.145388-15.260546 197.554709 197.554709 0 0 1-20.28959-87.748142c0.017342-109.979983 89.482294-199.444936 199.444935-199.444935zM947.211706 96.540297a17.324188 17.324188 0 0 0-24.520924 0l-806.381141 806.381141a17.324188 17.324188 0 1 0 24.520923 24.520923l806.381142-806.381141a17.324188 17.324188 0 0 0 0-24.520923z" fill="#969797" p-id="1848"></path></svg>