<svg id="home_tab_ic_need_selected" xmlns="http://www.w3.org/2000/svg" width="44" height="44" viewBox="0 0 44 44">
  <defs>
    <style>
      .cls-1, .cls-2 {
        fill: #e2462c;
        fill-rule: evenodd;
      }

      .cls-2 {
        opacity: 0.4;
      }
    </style>
  </defs>
  <g id="ic">
    <path id="椭圆_2_拷贝_4" data-name="椭圆 2 拷贝 4" class="cls-1" d="M386,2445a9,9,0,1,1-9,9A9,9,0,0,1,386,2445Zm-22,0a9,9,0,1,1-9,9A9,9,0,0,1,364,2445Zm11-21a9,9,0,1,1-9,9A9,9,0,0,1,375,2424Zm0,3a6,6,0,1,1-6,6A6,6,0,0,1,375,2427Zm11,21a6,6,0,1,1-6,6A6,6,0,0,1,386,2448Zm-22,0a6,6,0,1,1-6,6A6,6,0,0,1,364,2448Z" transform="translate(-353 -2421.5)"/>
    <path id="椭圆_2_拷贝_5" data-name="椭圆 2 拷贝 5" class="cls-2" d="M393,2453c-0.623,2.39-1,5-1,5s-2.026,3.39-7.421,3.15a8.971,8.971,0,0,1,7.928-12.13A6.444,6.444,0,0,1,393,2453Zm-17-13c-0.719.05-1.593,0.07-2.449,0.08a8.971,8.971,0,0,1,7.877-12.05c0.811,2.06,2.348,6.65.572,7.97C379.687,2437.72,378.245,2439.83,376,2440Zm-3.676,9.11a9.031,9.031,0,0,1,3,1ZM372,2455c-0.983,3.67-5.314,6.74-9.008,7.09a8.979,8.979,0,0,1,7.237-13.05A6.105,6.105,0,0,1,372,2455Z" transform="translate(-353 -2421.5)"/>
  </g>
</svg>
