<svg id="home_pic_label_new" xmlns="http://www.w3.org/2000/svg" width="36" height="60" viewBox="0 0 36 60">
  <defs>
    <style>
      .cls-1 {
        fill: #e2462c;
        opacity: 0.9;
      }

      .cls-1, .cls-2 {
        fill-rule: evenodd;
      }

      .cls-2 {
        fill: #fff;
      }
    </style>
  </defs>
  <path id="bg" class="cls-1" d="M42,1201v-60H78v60l-18-5Z" transform="translate(-42 -1141)"/>
  <path id="全_新" data-name="全 新" class="cls-2" d="M59.409,1147.62a31.436,31.436,0,0,1-9.615,6.98l0.768,1.38a31.469,31.469,0,0,0,9.417-6.93,31.077,31.077,0,0,0,9.33,6.82l0.79-1.4a31.226,31.226,0,0,1-9.549-6.85H59.409Zm-5.554,8.47h5.312v3.83H52.8v1.52h6.366v4.07h-8.32v1.56H69.133v-1.56H60.792v-4.07h6.344v-1.52H60.792v-3.83H66.1v-1.51H53.855v1.51Zm14.774,13.69a18.568,18.568,0,0,1-7.178,1.47v9.42a14.5,14.5,0,0,1-2.107,7.85l1.12,1.19q2.349-3.345,2.524-9.04v-2.62h3.249v11.75h1.559v-11.75h2.371v-1.52H62.987v-4a21.111,21.111,0,0,0,6.432-1.34Zm-18.286,3.14h9.9v-1.45H56.116c-0.351-.79-0.7-1.52-1.054-2.18l-1.624.27a13.467,13.467,0,0,1,1.142,1.91H50.343v1.45Zm-0.22,4.98h4.434v2.46H50.474v1.45h4.083v5.77a0.77,0.77,0,0,1-.856.88,5.933,5.933,0,0,1-.988-0.11l0.329,1.47h1.185a1.669,1.669,0,0,0,1.91-1.87v-6.14H60v-1.45H56.138v-2.46h4.237v-1.43h-2.48a19.438,19.438,0,0,0,1.142-2.56l-1.427-.48a27.353,27.353,0,0,1-1.142,3.04H54.052a17.238,17.238,0,0,0-1.163-3l-1.4.51a16.5,16.5,0,0,1,1.163,2.49H50.123v1.43Zm1.888,5.1a17.108,17.108,0,0,1-2.261,5.28l1.317,0.84a20.9,20.9,0,0,0,2.393-5.81Zm4.983,0.2a30.98,30.98,0,0,1,1.537,4.07l1.317-.51a30.225,30.225,0,0,0-1.537-3.91Z" transform="translate(-42 -1141)"/>
</svg>
