<svg id="home_tab_ic_profile_selected" xmlns="http://www.w3.org/2000/svg" width="44" height="44" viewBox="0 0 44 44">
  <defs>
    <style>
      .cls-1, .cls-2 {
        fill: #e2462c;
        fill-rule: evenodd;
      }

      .cls-2 {
        opacity: 0.4;
      }
    </style>
  </defs>
  <g id="ic">
    <path id="椭圆_1_拷贝_2" data-name="椭圆 1 拷贝 2" class="cls-1" d="M675,2422a21,21,0,1,1-21,21A21,21,0,0,1,675,2422Zm0,3a18,18,0,1,1-18,18A18,18,0,0,1,675,2425Zm0,28a10.98,10.98,0,0,1-9.144-4.89l2.381-1.85a7.985,7.985,0,0,0,13.526,0l2.381,1.85A10.98,10.98,0,0,1,675,2453Z" transform="translate(-653 -2421)"/>
    <path id="椭圆_1_拷贝_3" data-name="椭圆 1 拷贝 3" class="cls-2" d="M684.744,2426.2c3.634,2.33,8.684,6.16,9.256,9.8,0.9,5.75-.448,16.23-4,19,0,0-6.676,6.57-12,7a32.436,32.436,0,0,1-12.185-1.62A21,21,0,0,1,682,2426,20.7,20.7,0,0,1,684.744,2426.2Z" transform="translate(-653 -2421)"/>
  </g>
</svg>
