<?xml version="1.0" standalone="no"?><!DOCTYPE svg PUBLIC "-//W3C//DTD SVG 1.1//EN" "http://www.w3.org/Graphics/SVG/1.1/DTD/svg11.dtd"><svg t="1527824890418" class="icon" style="" viewBox="0 0 1024 1024" version="1.1" xmlns="http://www.w3.org/2000/svg" p-id="2988" xmlns:xlink="http://www.w3.org/1999/xlink" width="200" height="200"><defs><style type="text/css"></style></defs><path d="M504.613439 1007.658498c-100.578656 0-197.6917-29.596838-280.8917-85.577866-17.378656-11.686957-22.007905-35.288538-10.295652-52.641897 11.686957-17.403953 35.288538-21.982609 52.667194-10.295652 70.627668 47.506719 153.119368 72.626087 238.545455 72.626087 235.965217 0 427.939921-191.974704 427.939921-427.939921S740.578656 75.914625 504.613439 75.914625c-235.965217 0-427.939921 191.974704-427.939921 427.939921 0 96.455336 31.671146 187.750198 91.623715 264.018972 12.951779 16.467984 10.093281 40.32253-6.374704 53.274308-16.467984 12.951779-40.347826 10.093281-53.274308-6.4-70.551779-89.751779-107.838735-197.26166-107.838735-310.893281 0-277.805534 226.023715-503.829249 503.829249-503.829249 277.805534 0 503.829249 226.023715 503.829249 503.829249S782.418972 1007.658498 504.613439 1007.658498z" p-id="2989" fill="#ffffff"></path><path d="M390.779447 707.794466c-9.713834 0-19.427668-3.693281-26.839526-11.105138l-139.130435-139.130435c-14.823715-14.823715-14.823715-38.83004 0-53.653755s38.83004-14.823715 53.653755 0l139.130435 139.130435c14.823715 14.823715 14.823715 38.83004 0 53.653755C410.207115 704.101186 400.493281 707.794466 390.779447 707.794466z" p-id="2990" fill="#ffffff"></path><path d="M403.427668 720.442688c-9.713834 0-19.427668-3.693281-26.839526-11.105138-14.823715-14.823715-14.823715-38.83004 0-53.653755l354.150198-354.150198c14.823715-14.823715 38.83004-14.823715 53.653755 0s14.823715 38.83004 0 53.653755l-354.150198 354.150198C422.855336 716.749407 413.141502 720.442688 403.427668 720.442688z" p-id="2991" fill="#ffffff"></path></svg>