<svg xmlns="http://www.w3.org/2000/svg" width="18" height="18" viewBox="0 0 18 18">
  <path fill="#AAAAAA" fill-rule="evenodd" d="M9.97253433,106.56 L9.97253433,106.56 C14.1373819,106.56 17.5136579,103.175273 17.5136579,99 C17.5136579,94.8247273 14.1373819,91.44 9.97253433,91.44 C5.80768677,91.44 2.43141074,94.8247273 2.43141074,99 C2.43141074,103.175273 5.80768677,106.56 9.97253433,106.56 L9.97253433,106.56 Z M0.995006242,99 C0.995006242,94.0294373 5.01438248,90 9.97253433,90 C14.9306862,90 18.9500624,94.0294373 18.9500624,99 C18.9500624,103.970563 14.9306862,108 9.97253433,108 C5.01438248,108 0.995006242,103.970563 0.995006242,99 Z M6.02242197,100.8 C6.6174002,100.8 7.09972534,100.316468 7.09972534,99.72 C7.09972534,99.1235325 6.6174002,98.64 6.02242197,98.64 C5.42744375,98.64 4.9451186,99.1235325 4.9451186,99.72 C4.9451186,100.316468 5.42744375,100.8 6.02242197,100.8 Z M13.9226467,100.8 C14.5176249,100.8 14.9999501,100.316468 14.9999501,99.72 C14.9999501,99.1235325 14.5176249,98.64 13.9226467,98.64 C13.3276685,98.64 12.8453433,99.1235325 12.8453433,99.72 C12.8453433,100.316468 13.3276685,100.8 13.9226467,100.8 Z M8.32814402,104.186729 C8.32697062,104.187916 8.34586603,104.171202 8.38447707,104.141955 C8.46213924,104.083127 8.55922527,104.021902 8.67554185,103.963277 C9.02453378,103.787379 9.45144966,103.68 9.96347048,103.68 C10.4764335,103.68 10.9079993,103.787866 11.263702,103.964899 C11.4623738,104.063778 11.5834414,104.153768 11.623323,104.193123 C11.9060053,104.47207 12.3607316,104.468469 12.6389827,104.185079 C12.9172337,103.901689 12.9136414,103.445825 12.6309591,103.166877 C12.4884307,103.026232 12.2462565,102.846222 11.9024325,102.675101 C11.3539756,102.402134 10.7052842,102.24 9.96347048,102.24 C9.22071451,102.24 8.57417106,102.402621 8.03033325,102.676723 C7.68840906,102.849058 7.44856799,103.030734 7.30771116,103.173271 C7.02855121,103.455761 7.03067903,103.911635 7.31246378,104.191494 C7.59424853,104.471352 8.04898406,104.469219 8.32814402,104.186729 Z" transform="translate(-1 -90)"/>
</svg>
