<?xml version="1.0" standalone="no"?><!DOCTYPE svg PUBLIC "-//W3C//DTD SVG 1.1//EN" "http://www.w3.org/Graphics/SVG/1.1/DTD/svg11.dtd"><svg t="1529551541309" class="icon" style="" viewBox="0 0 1024 1024" version="1.1" xmlns="http://www.w3.org/2000/svg" p-id="2690" xmlns:xlink="http://www.w3.org/1999/xlink" width="200" height="200"><defs><style type="text/css"></style></defs><path d="M977.92 433.92l-44.8 0c-20.48 0-44.8-15.36-49.92-35.84l-25.6-65.28c-10.24-20.48-5.12-44.8 10.24-60.16l30.72-30.72c15.36-15.36 15.36-39.68 0-55.04l-55.04-55.04c-15.36-15.36-39.68-15.36-55.04 0l-30.72 30.72c-15.36 15.36-39.68 20.48-60.16 10.24l-65.28-25.6c-20.48-5.12-35.84-30.72-35.84-49.92L596.48 52.48c0-25.6-20.48-39.68-39.68-39.68l-75.52 0c-25.6 0-39.68 20.48-39.68 39.68L441.6 102.4c0 20.48-15.36 44.8-35.84 49.92l-65.28 25.6c-20.48 10.24-44.8 5.12-60.16-10.24L238.08 128c-15.36-15.36-39.68-15.36-55.04 0l-55.04 55.04c-15.36 15.36-15.36 39.68 0 55.04l30.72 30.72c15.36 15.36 20.48 39.68 10.24 60.16l-25.6 65.28c-5.12 20.48-30.72 35.84-49.92 35.84L46.08 430.08c-25.6 0-39.68 20.48-39.68 39.68l0 75.52c0 25.6 20.48 39.68 39.68 39.68l44.8 0c20.48 0 44.8 15.36 49.92 35.84l25.6 65.28c10.24 20.48 5.12 44.8-10.24 60.16l-30.72 30.72c-15.36 15.36-15.36 39.68 0 55.04l55.04 55.04c15.36 15.36 39.68 15.36 55.04 0l30.72-30.72c15.36-15.36 39.68-20.48 60.16-10.24l65.28 25.6c20.48 5.12 35.84 30.72 35.84 49.92L427.52 972.8c0 25.6 20.48 39.68 39.68 39.68l75.52 0c25.6 0 39.68-20.48 39.68-39.68l0-44.8c0-20.48 15.36-44.8 35.84-49.92l65.28-25.6c20.48-10.24 44.8-5.12 60.16 10.24l30.72 30.72c15.36 15.36 39.68 15.36 55.04 0l55.04-55.04c15.36-15.36 15.36-39.68 0-55.04l-30.72-30.72c-15.36-15.36-20.48-39.68-10.24-60.16l25.6-65.28c5.12-20.48 30.72-35.84 49.92-35.84l44.8 0c25.6 0 39.68-20.48 39.68-39.68l10.24 0 0-75.52C1017.6 449.28 997.12 433.92 977.92 433.92zM514.56 701.44c-104.96 0-190.72-85.76-190.72-190.72s85.76-190.72 190.72-190.72c104.96 0 190.72 85.76 190.72 190.72S619.52 701.44 514.56 701.44z" p-id="2691" fill="#ffffff"></path></svg>