<?xml version="1.0" standalone="no"?><!DOCTYPE svg PUBLIC "-//W3C//DTD SVG 1.1//EN" "http://www.w3.org/Graphics/SVG/1.1/DTD/svg11.dtd"><svg t="1527158375326" class="icon" style="" viewBox="0 0 1024 1024" version="1.1" xmlns="http://www.w3.org/2000/svg" p-id="5752" xmlns:xlink="http://www.w3.org/1999/xlink" width="20" height="20"><defs><style type="text/css"></style></defs><path d="M365.714286 0H73.142857C32.748495 0 0 32.748495 0 73.142857v292.571429c0 40.394362 32.748495 73.142857 73.142857 73.142857h292.571429c40.394362 0 73.142857-32.748495 73.142857-73.142857V73.142857c0-40.394362-32.748495-73.142857-73.142857-73.142857zM365.714286 585.142857H73.142857c-40.394362 0-73.142857 32.748495-73.142857 73.142857v292.571429c0 40.394362 32.748495 73.142857 73.142857 73.142857h292.571429c40.394362 0 73.142857-32.748495 73.142857-73.142857v-292.571429c0-40.394362-32.748495-73.142857-73.142857-73.142857zM950.857143 0h-292.571429c-40.394362 0-73.142857 32.748495-73.142857 73.142857v292.571429c0 40.394362 32.748495 73.142857 73.142857 73.142857h292.571429c40.394362 0 73.142857-32.748495 73.142857-73.142857V73.142857c0-40.394362-32.748495-73.142857-73.142857-73.142857zM950.857143 585.142857h-292.571429c-40.394362 0-73.142857 32.748495-73.142857 73.142857v292.571429c0 40.394362 32.748495 73.142857 73.142857 73.142857h292.571429c40.394362 0 73.142857-32.748495 73.142857-73.142857v-292.571429c0-40.394362-32.748495-73.142857-73.142857-73.142857z" fill="#bbbbbc" p-id="5753"></path></svg>