<?xml version="1.0" standalone="no"?><!DOCTYPE svg PUBLIC "-//W3C//DTD SVG 1.1//EN" "http://www.w3.org/Graphics/SVG/1.1/DTD/svg11.dtd"><svg t="1523243624250" class="icon" style="" viewBox="0 0 1024 1024" version="1.1" xmlns="http://www.w3.org/2000/svg" p-id="8136" xmlns:xlink="http://www.w3.org/1999/xlink" width="200" height="200"><defs><style type="text/css"></style></defs><path d="M515.527848 533.403472c-1.163499-0.202615-2.325975-0.279363-3.567245-0.279363-3.218298 0-6.39771 0-9.577123 0.076748-111.833041-5.089925-201.252607-98.482989-201.252607-212.545814 0-117.328195 94.615914-212.787314 210.868615-212.787314 116.272143 0 210.867592 95.459119 210.867592 212.787314C722.86708 436.812577 630.191354 531.504216 515.527848 533.403472L515.527848 533.403472zM511.999488 65.290005c-139.519614 0-253.057483 114.537639-253.057483 255.365039 0 100.43341 57.776891 187.486068 141.516084 229.17147-58.610886 18.108426-112.297622 50.535977-156.813488 95.496981-71.717392 72.290443-132.286885 189.783391-132.286885 292.077172 0 11.758812 9.461489 21.308305 21.094434 21.308305s21.094434-9.549493 21.094434-21.308305c0-90.930989 56.148811-197.712991 119.897717-262.033925 61.421908-61.984726 142.388964-97.115851 228.900294-99.550297 3.219321 0.088004 6.457062 0.203638 9.655917 0.203638 139.538033 0 253.057483-114.536616 253.057483-255.365039C765.056971 179.827645 651.537522 65.290005 511.999488 65.290005L511.999488 65.290005zM780.392238 645.284609c-8.258081-8.335852-21.596877-8.335852-29.858028 0-8.200776 8.289804-8.200776 21.793352 0.038886 30.081109 63.711044 64.320934 119.918183 171.102936 119.918183 262.033925 0 11.758812 9.422603 21.308305 21.076014 21.308305 11.67183 0 21.074991-9.549493 21.074991-21.308305C912.641261 835.106886 852.072791 717.613938 780.392238 645.284609L780.392238 645.284609zM780.392238 645.284609" p-id="8137" fill="#ffffff"></path></svg>